<svg width="44" height="44" viewBox="0 0 44 44" fill="none" xmlns="http://www.w3.org/2000/svg">
<path d="M18.3333 13.75C18.3333 14.9655 17.8504 16.1313 16.9909 16.9909C16.1314 17.8504 14.9656 18.3333 13.75 18.3333C12.5344 18.3333 11.3686 17.8504 10.5091 16.9909C9.64955 16.1313 9.16667 14.9655 9.16667 13.75C9.16667 12.5344 9.64955 11.3686 10.5091 10.5091C11.3686 9.64951 12.5344 9.16663 13.75 9.16663C14.9656 9.16663 16.1314 9.64951 16.9909 10.5091C17.8504 11.3686 18.3333 12.5344 18.3333 13.75V13.75ZM18.3333 13.75L18.7202 13.5556C19.7385 13.0464 20.8614 12.7813 22 12.7813C23.1386 12.7813 24.2615 13.0464 25.2798 13.5556L25.6667 13.75H18.3333ZM25.6667 13.75C25.6667 14.9655 26.1496 16.1313 27.0091 16.9909C27.8686 17.8504 29.0344 18.3333 30.25 18.3333C31.4656 18.3333 32.6314 17.8504 33.4909 16.9909C34.3504 16.1313 34.8333 14.9655 34.8333 13.75C34.8333 12.5344 34.3504 11.3686 33.4909 10.5091C32.6314 9.64951 31.4656 9.16663 30.25 9.16663C29.0344 9.16663 27.8686 9.64951 27.0091 10.5091C26.1496 11.3686 25.6667 12.5344 25.6667 13.75ZM22 25.3055C31.1667 19.8055 31.1667 31.7221 38.5 28.545C36.6667 36.3055 27.5 36.3055 22 30.8055C16.5 36.3055 7.33333 36.3055 5.5 28.545C12.8333 31.7221 12.8333 19.8055 22 25.3055Z" stroke="white" stroke-width="2" stroke-linecap="round" stroke-linejoin="round"/>
</svg>
