<svg width="24" height="24" viewBox="0 0 24 24" fill="none" xmlns="http://www.w3.org/2000/svg">
<path d="M3 7.99994H21C21.2652 7.99994 21.5196 7.89458 21.7071 7.70705C21.8946 7.51951 22 7.26516 22 6.99994C22 6.73472 21.8946 6.48037 21.7071 6.29283C21.5196 6.1053 21.2652 5.99994 21 5.99994H3C2.73478 5.99994 2.48043 6.1053 2.29289 6.29283C2.10536 6.48037 2 6.73472 2 6.99994C2 7.26516 2.10536 7.51951 2.29289 7.70705C2.48043 7.89458 2.73478 7.99994 3 7.99994ZM21 10.9999H3C2.73478 10.9999 2.48043 11.1053 2.29289 11.2928C2.10536 11.4804 2 11.7347 2 11.9999C2 12.2652 2.10536 12.5195 2.29289 12.707C2.48043 12.8946 2.73478 12.9999 3 12.9999H21C21.2652 12.9999 21.5196 12.8946 21.7071 12.707C21.8946 12.5195 22 12.2652 22 11.9999C22 11.7347 21.8946 11.4804 21.7071 11.2928C21.5196 11.1053 21.2652 10.9999 21 10.9999ZM21 15.9999H3C2.73478 15.9999 2.48043 16.1053 2.29289 16.2928C2.10536 16.4804 2 16.7347 2 16.9999C2 17.2652 2.10536 17.5195 2.29289 17.707C2.48043 17.8946 2.73478 17.9999 3 17.9999H21C21.2652 17.9999 21.5196 17.8946 21.7071 17.707C21.8946 17.5195 22 17.2652 22 16.9999C22 16.7347 21.8946 16.4804 21.7071 16.2928C21.5196 16.1053 21.2652 15.9999 21 15.9999Z" fill="#8896AB"/>
</svg>
