<svg width="44" height="44" viewBox="0 0 44 44" fill="none" xmlns="http://www.w3.org/2000/svg">
<path d="M22.0001 31.1666L19.2501 33.9166C18.0344 35.132 16.3858 35.8147 14.6668 35.8147C12.9477 35.8147 11.2991 35.132 10.0834 33.9166V33.9166C8.86806 32.7009 8.1853 31.0523 8.1853 29.3333C8.1853 27.6143 8.86806 25.9656 10.0834 24.7499L15.5834 19.2499C16.7991 18.0346 18.4477 17.3518 20.1668 17.3518C21.8858 17.3518 23.5344 18.0346 24.7501 19.2499V19.2499" stroke="white" stroke-width="2" stroke-linecap="round"/>
<path d="M22 12.8333L24.75 10.0833C25.9657 8.86794 27.6143 8.18518 29.3333 8.18518C31.0523 8.18518 32.701 8.86794 33.9167 10.0833V10.0833C35.132 11.299 35.8148 12.9476 35.8148 14.6666C35.8148 16.3857 35.132 18.0343 33.9167 19.25L28.4167 24.75C27.201 25.9653 25.5523 26.6481 23.8333 26.6481C22.1143 26.6481 20.4657 25.9653 19.25 24.75" stroke="white" stroke-width="2" stroke-linecap="round"/>
</svg>
