<svg width="183" height="40" viewBox="0 0 183 40" fill="none" xmlns="http://www.w3.org/2000/svg">
<rect width="183" height="40" rx="6" fill="url(#paint0_linear_101_1233)"/>
<path d="M45.0595 20.9304V19.4968L43.1179 19.4968C42.9182 17.2913 42.117 10.9235 39.3911 9.36557C38.7968 9.02388 37.8224 8.74909 36.5689 9.37035C36.3355 9.48743 35.6137 9.88646 34.4228 10.5579L36.5336 11.7171C36.6169 11.7628 36.6902 11.8245 36.7494 11.8986C36.8085 11.9727 36.8523 12.0577 36.8781 12.1487C36.9039 12.2397 36.9114 12.3348 36.8999 12.4287C36.8885 12.5226 36.8584 12.6132 36.8115 12.6955C36.7178 12.8599 36.5623 12.9807 36.3792 13.0316C36.196 13.0824 36 13.0592 35.834 12.967C34.1302 12.0195 29.5153 9.45404 29.3486 9.37033C28.0951 8.74907 27.1207 9.02386 26.5265 9.36555C23.8005 10.9235 22.9994 17.2913 22.7996 19.4968H21V20.9304H45.0595Z" fill="white"/>
<path d="M36.1141 23.6085C36.9359 22.9828 37.942 22.6429 38.9775 22.6413C39.8929 22.641 40.7885 22.9055 41.5549 23.4025C42.3214 23.8995 42.9255 24.6075 43.2934 25.4399C43.6613 26.2724 43.7771 27.1932 43.6266 28.0899C43.4761 28.9867 43.0659 29.8204 42.446 30.4894C41.8262 31.1583 41.0235 31.6334 40.1362 31.8567C39.2488 32.08 38.3152 32.0417 37.4494 31.7465C36.5836 31.4514 35.8232 30.9122 35.2609 30.1948C34.6987 29.4774 34.359 28.6129 34.2834 27.7069C33.925 27.3854 33.4566 27.2118 32.9737 27.2216C32.4909 27.2314 32.03 27.4237 31.685 27.7595C31.577 28.9201 31.0352 29.9985 30.1664 30.7821C29.2977 31.5658 28.1649 31.998 26.9913 31.9936C25.8177 31.9891 24.6883 31.5483 23.8256 30.7581C22.9629 29.9678 22.4294 28.8854 22.3303 27.724C22.2311 26.5626 22.5735 25.4064 23.29 24.4832C24.0064 23.56 25.045 22.9367 26.2011 22.7361C27.3572 22.5355 28.5471 22.7722 29.5363 23.3994C30.5255 24.0267 31.2423 24.9991 31.5455 26.1251C31.9943 25.9082 32.4863 25.7937 32.9854 25.79C33.4846 25.7863 33.9782 25.8934 34.4303 26.1036C34.7007 25.1109 35.2924 24.2342 36.1141 23.6085Z" fill="white"/>
<path d="M62.6869 29.8827C61.3075 29.8827 59.9762 29.7139 58.693 29.3762C57.4259 29.0224 56.3913 28.5722 55.5894 28.0254L57.1532 24.5039C57.9071 24.9863 58.7732 25.3883 59.7516 25.7099C60.7461 26.0154 61.7325 26.1682 62.711 26.1682C63.3686 26.1682 63.8979 26.1119 64.2989 25.9994C64.6999 25.8707 64.9886 25.7099 65.165 25.517C65.3575 25.3079 65.4537 25.0667 65.4537 24.7934C65.4537 24.4074 65.2773 24.1019 64.9244 23.8768C64.5716 23.6517 64.1144 23.4668 63.553 23.322C62.9917 23.1773 62.3661 23.0326 61.6764 22.8879C61.0027 22.7432 60.3211 22.5582 59.6313 22.3331C58.9577 22.108 58.3402 21.8186 57.7788 21.4648C57.2174 21.095 56.7603 20.6206 56.4074 20.0417C56.0545 19.4467 55.8781 18.699 55.8781 17.7985C55.8781 16.7855 56.1507 15.8689 56.6961 15.0489C57.2575 14.2288 58.0915 13.5695 59.1983 13.071C60.305 12.5725 61.6844 12.3233 63.3365 12.3233C64.4432 12.3233 65.5259 12.4519 66.5845 12.7092C67.6592 12.9504 68.6136 13.3122 69.4476 13.7946L67.98 17.3403C67.178 16.9061 66.384 16.5845 65.5981 16.3755C64.8122 16.1503 64.0503 16.0378 63.3125 16.0378C62.6548 16.0378 62.1255 16.1101 61.7245 16.2549C61.3235 16.3835 61.0348 16.5604 60.8584 16.7855C60.6819 17.0106 60.5937 17.2679 60.5937 17.5573C60.5937 17.9272 60.7621 18.2247 61.099 18.4498C61.4519 18.6588 61.909 18.8357 62.4704 18.9804C63.0478 19.1091 63.6733 19.2457 64.347 19.3905C65.0367 19.5352 65.7184 19.7201 66.3921 19.9452C67.0818 20.1543 67.7073 20.4437 68.2687 20.8135C68.8301 21.1673 69.2792 21.6417 69.616 22.2366C69.9689 22.8155 70.1453 23.5472 70.1453 24.4316C70.1453 25.4124 69.8647 26.321 69.3033 27.1571C68.7579 27.9772 67.9319 28.6365 66.8251 29.135C65.7344 29.6335 64.355 29.8827 62.6869 29.8827Z" fill="white"/>
<path d="M75.6958 29.545V16.4478H70.523V12.661H85.6083V16.4478H80.4595V29.545H75.6958Z" fill="white"/>
<path d="M95.6411 29.8827C94.2937 29.8827 93.0507 29.6656 91.9119 29.2315C90.773 28.7973 89.7786 28.1862 88.9285 27.3983C88.0944 26.5943 87.4448 25.6617 86.9797 24.6004C86.5145 23.5391 86.2819 22.3733 86.2819 21.103C86.2819 19.8327 86.5145 18.6669 86.9797 17.6056C87.4448 16.5443 88.0944 15.6197 88.9285 14.8318C89.7786 14.0278 90.773 13.4087 91.9119 12.9745C93.0507 12.5404 94.2937 12.3233 95.6411 12.3233C97.0044 12.3233 98.2475 12.5404 99.3703 12.9745C100.509 13.4087 101.496 14.0278 102.33 14.8318C103.164 15.6197 103.813 16.5443 104.278 17.6056C104.76 18.6669 105 19.8327 105 21.103C105 22.3733 104.76 23.5472 104.278 24.6245C103.813 25.6858 103.164 26.6104 102.33 27.3983C101.496 28.1862 100.509 28.7973 99.3703 29.2315C98.2475 29.6656 97.0044 29.8827 95.6411 29.8827ZM95.6411 25.927C96.2827 25.927 96.8761 25.8144 97.4215 25.5893C97.9829 25.3642 98.4641 25.0426 98.865 24.6245C99.2821 24.1904 99.6029 23.6758 99.8274 23.0808C100.068 22.4859 100.188 21.8266 100.188 21.103C100.188 20.3633 100.068 19.704 99.8274 19.1251C99.6029 18.5302 99.2821 18.0237 98.865 17.6056C98.4641 17.1714 97.9829 16.8418 97.4215 16.6167C96.8761 16.3915 96.2827 16.279 95.6411 16.279C94.9995 16.279 94.398 16.3915 93.8366 16.6167C93.2913 16.8418 92.8101 17.1714 92.393 17.6056C91.992 18.0237 91.6713 18.5302 91.4307 19.1251C91.2061 19.704 91.0938 20.3633 91.0938 21.103C91.0938 21.8266 91.2061 22.4859 91.4307 23.0808C91.6713 23.6758 91.992 24.1904 92.393 24.6245C92.8101 25.0426 93.2913 25.3642 93.8366 25.5893C94.398 25.8144 94.9995 25.927 95.6411 25.927Z" fill="white"/>
<path d="M107.495 29.545V12.661H115.194C116.734 12.661 118.057 12.9102 119.164 13.4087C120.287 13.9072 121.153 14.6308 121.763 15.5795C122.372 16.5121 122.677 17.6217 122.677 18.9081C122.677 20.1784 122.372 21.2799 121.763 22.2125C121.153 23.1291 120.287 23.8366 119.164 24.3351C118.057 24.8175 116.734 25.0587 115.194 25.0587H110.142L112.259 23.0567V29.545H107.495ZM117.913 29.545L113.727 23.3944H118.803L123.014 29.545H117.913ZM112.259 23.5632L110.142 21.3683H114.906C115.9 21.3683 116.638 21.1512 117.119 20.7171C117.616 20.2829 117.865 19.6799 117.865 18.9081C117.865 18.1201 117.616 17.5091 117.119 17.0749C116.638 16.6408 115.9 16.4237 114.906 16.4237H110.142L112.259 14.2288V23.5632Z" fill="white"/>
<path d="M125.305 29.545V12.661H130.069V29.545H125.305Z" fill="white"/>
<path d="M137.837 19.1975H145.656V22.7673H137.837V19.1975ZM138.174 25.8546H146.979V29.545H133.458V12.661H146.667V16.3513H138.174V25.8546Z" fill="white"/>
<path d="M155.541 29.8827C154.162 29.8827 152.831 29.7139 151.548 29.3762C150.28 29.0224 149.246 28.5722 148.444 28.0254L150.008 24.5039C150.762 24.9863 151.628 25.3883 152.606 25.7099C153.601 26.0154 154.587 26.1682 155.566 26.1682C156.223 26.1682 156.752 26.1119 157.153 25.9994C157.554 25.8707 157.843 25.7099 158.02 25.517C158.212 25.3079 158.308 25.0667 158.308 24.7934C158.308 24.4074 158.132 24.1019 157.779 23.8768C157.426 23.6517 156.969 23.4668 156.408 23.322C155.846 23.1773 155.221 23.0326 154.531 22.8879C153.857 22.7432 153.176 22.5582 152.486 22.3331C151.812 22.108 151.195 21.8186 150.633 21.4648C150.072 21.095 149.615 20.6206 149.262 20.0417C148.909 19.4467 148.733 18.699 148.733 17.7985C148.733 16.7855 149.005 15.8689 149.551 15.0489C150.112 14.2288 150.946 13.5695 152.053 13.071C153.16 12.5725 154.539 12.3233 156.191 12.3233C157.298 12.3233 158.381 12.4519 159.439 12.7092C160.514 12.9504 161.468 13.3122 162.302 13.7946L160.835 17.3403C160.033 16.9061 159.239 16.5845 158.453 16.3755C157.667 16.1503 156.905 16.0378 156.167 16.0378C155.509 16.0378 154.98 16.1101 154.579 16.2549C154.178 16.3835 153.889 16.5604 153.713 16.7855C153.537 17.0106 153.448 17.2679 153.448 17.5573C153.448 17.9272 153.617 18.2247 153.954 18.4498C154.306 18.6588 154.764 18.8357 155.325 18.9804C155.902 19.1091 156.528 19.2457 157.202 19.3905C157.891 19.5352 158.573 19.7201 159.247 19.9452C159.936 20.1543 160.562 20.4437 161.123 20.8135C161.685 21.1673 162.134 21.6417 162.471 22.2366C162.823 22.8155 163 23.5472 163 24.4316C163 25.4124 162.719 26.321 162.158 27.1571C161.612 27.9772 160.786 28.6365 159.68 29.135C158.589 29.6335 157.21 29.8827 155.541 29.8827Z" fill="white"/>
<defs>
<linearGradient id="paint0_linear_101_1233" x1="-10.8071" y1="-1.62968e-05" x2="184.18" y2="67.7188" gradientUnits="userSpaceOnUse">
<stop stop-color="#EDCE76"/>
<stop offset="0.161458" stop-color="#FA7E1E"/>
<stop offset="0.5" stop-color="#D62976"/>
<stop offset="0.75" stop-color="#962FBF"/>
<stop offset="1" stop-color="#4F5BD5"/>
</linearGradient>
</defs>
</svg>
