<svg width="32" height="32" viewBox="0 0 32 32" fill="none" xmlns="http://www.w3.org/2000/svg">
<path d="M28 15.871V14.4445L26.0632 14.4445C25.864 12.2501 25.0648 5.91391 22.3456 4.36375C21.7528 4.02376 20.7808 3.75034 19.5304 4.3685C19.2976 4.485 18.5776 4.88205 17.3896 5.55014L19.4952 6.70355C19.5783 6.74907 19.6514 6.81047 19.7104 6.88418C19.7694 6.9579 19.8131 7.04247 19.8388 7.13301C19.8646 7.22355 19.872 7.31825 19.8606 7.41164C19.8492 7.50503 19.8192 7.59524 19.7724 7.67707C19.6789 7.84064 19.5239 7.96088 19.3411 8.0115C19.1584 8.06213 18.9629 8.03901 18.7974 7.94721C17.0978 7.00447 12.4942 4.45178 12.328 4.36849C11.0776 3.75032 10.1056 4.02374 9.5128 4.36373C6.7936 5.91389 5.99442 12.25 5.7952 14.4445H4V15.871H28Z" fill="white"/>
<path d="M19.0766 18.5358C19.8963 17.9132 20.9 17.575 21.9329 17.5734C22.846 17.5731 23.7394 17.8363 24.504 18.3308C25.2685 18.8253 25.8711 19.5298 26.2381 20.3581C26.6051 21.1864 26.7206 22.1026 26.5705 22.9949C26.4204 23.8872 26.0112 24.7168 25.3928 25.3824C24.7745 26.048 23.9738 26.5208 23.0887 26.7429C22.2036 26.9651 21.2722 26.927 20.4086 26.6333C19.5449 26.3397 18.7863 25.8031 18.2255 25.0893C17.6646 24.3755 17.3258 23.5153 17.2504 22.6138C16.8929 22.2939 16.4256 22.1212 15.944 22.1309C15.4623 22.1406 15.0025 22.332 14.6584 22.6661C14.5506 23.8209 14.0102 24.8939 13.1436 25.6737C12.277 26.4535 11.147 26.8835 9.97631 26.8791C8.80558 26.8747 7.67898 26.4361 6.81841 25.6498C5.95784 24.8635 5.4257 23.7864 5.32681 22.6308C5.22792 21.4752 5.56945 20.3247 6.28413 19.4061C6.99881 18.4875 8.03482 17.8673 9.18808 17.6678C10.3413 17.4682 11.5282 17.7036 12.515 18.3278C13.5017 18.9519 14.2168 19.9195 14.5193 21.0399C14.967 20.824 15.4577 20.7101 15.9556 20.7064C16.4535 20.7027 16.9459 20.8093 17.3969 21.0185C17.6666 20.0307 18.2569 19.1584 19.0766 18.5358Z" fill="white"/>
</svg>
