<svg width="279" height="279" viewBox="0 0 279 279" fill="none" xmlns="http://www.w3.org/2000/svg">
<mask id="mask0_101_1238" style="mask-type:alpha" maskUnits="userSpaceOnUse" x="0" y="0" width="279" height="279">
<circle cx="139.5" cy="139.5" r="137.576" fill="#C4C4C4" stroke="#F8BB54" stroke-width="3.84828"/>
</mask>
<g mask="url(#mask0_101_1238)">
<path d="M-81.0708 58.5036C-81.0708 58.5036 -16.1115 46.4704 0.648878 4.35481C16.6779 -36.0177 82.7061 -46.8696 82.7061 -46.8696" stroke="#F59E0B" stroke-width="4.32558" stroke-miterlimit="10"/>
<path d="M-81.0708 78.7456C-81.0708 78.7456 -1.37584 64.8573 19.1525 14.0262C38.7247 -34.4995 119.657 -46.8696 119.657 -46.8696" stroke="#F59E0B" stroke-width="4.32558" stroke-miterlimit="10"/>
<path d="M-81.0708 99.0445C-81.0708 99.0445 13.3033 83.2442 37.5999 23.8101C60.7716 -33.0373 156.608 -46.8696 156.608 -46.8696" stroke="#F59E0B" stroke-width="4.32558" stroke-miterlimit="10"/>
<path d="M-81.0708 119.287C-81.0708 119.287 28.0387 101.631 56.1035 33.4816C82.8185 -31.5191 193.559 -46.8696 193.559 -46.8696" stroke="#F59E0B" stroke-width="4.32558" stroke-miterlimit="10"/>
<path d="M-81.0708 139.53C-81.0708 139.53 42.7742 120.018 74.6072 43.2091C104.865 -30.0009 230.454 -46.8696 230.454 -46.8696" stroke="#F59E0B" stroke-width="4.32558" stroke-miterlimit="10"/>
<path d="M-81.0708 159.828C-81.0708 159.828 57.4533 138.461 93.0546 52.9365C126.968 -28.5391 267.405 -46.8696 267.405 -46.8696" stroke="#F59E0B" stroke-width="4.32558" stroke-miterlimit="10"/>
<path d="M-81.0708 180.07C-81.0708 180.07 72.1887 156.792 111.558 62.6644C149.015 -27.0209 304.356 -46.8696 304.356 -46.8696" stroke="#F59E0B" stroke-width="4.32558" stroke-miterlimit="10"/>
<path d="M-81.0708 200.313C-81.0708 200.313 86.9243 175.178 130.005 72.3359C171.062 -25.5027 341.307 -46.8696 341.307 -46.8696" stroke="#F59E0B" stroke-width="4.32558" stroke-miterlimit="10"/>
<path d="M-81.0708 220.612C-81.0708 220.612 101.603 193.622 148.509 82.1194C193.109 -24.0409 378.202 -46.8696 378.202 -46.8696" stroke="#F59E0B" stroke-width="4.32558" stroke-miterlimit="10"/>
<path d="M-81.0708 240.853C-81.0708 240.853 116.339 212.009 166.957 91.8473C215.156 -22.5227 415.153 -46.8696 415.153 -46.8696" stroke="#F59E0B" stroke-width="4.32558" stroke-miterlimit="10"/>
<path d="M-81.0708 261.152C-81.0708 261.152 131.074 230.395 185.46 101.575C237.203 -21.0045 452.104 -46.8696 452.104 -46.8696" stroke="#F59E0B" stroke-width="4.32558" stroke-miterlimit="10"/>
<path d="M-81.0708 281.396C-81.0708 281.396 145.753 248.783 203.908 111.303C259.25 -19.5423 489.054 -46.8696 489.054 -46.8696" stroke="#F59E0B" stroke-width="4.32558" stroke-miterlimit="10"/>
<path d="M-81.0708 301.636C-81.0708 301.636 160.489 267.17 222.411 120.974C281.297 -18.0241 526.005 -46.8696 526.005 -46.8696" stroke="#F59E0B" stroke-width="4.32558" stroke-miterlimit="10"/>
<path d="M-81.0708 321.935C-81.0708 321.935 175.224 285.557 240.915 130.758C303.343 -16.5059 562.901 -46.8696 562.901 -46.8696" stroke="#F59E0B" stroke-width="4.32558" stroke-miterlimit="10"/>
<path d="M-81.0708 342.179C-81.0708 342.179 189.903 303.943 259.362 140.429C325.391 -15.0441 599.852 -46.8696 599.852 -46.8696" stroke="#F59E0B" stroke-width="4.32558" stroke-miterlimit="10"/>
<path d="M-81.0708 362.423C-81.0708 362.423 204.639 322.33 277.866 150.157C347.437 -13.5259 636.803 -46.8696 636.803 -46.8696" stroke="#F59E0B" stroke-width="4.32558" stroke-miterlimit="10"/>
<path d="M-81.0708 382.722C-81.0708 382.722 219.374 340.772 296.313 159.884C369.484 -12.0077 673.753 -46.8696 673.753 -46.8696" stroke="#F59E0B" stroke-width="4.32558" stroke-miterlimit="10"/>
<path d="M-81.0708 402.962C-81.0708 402.962 234.053 359.104 314.817 169.612C391.531 -10.546 710.65 -46.8696 710.65 -46.8696" stroke="#F59E0B" stroke-width="4.32558" stroke-miterlimit="10"/>
</g>
</svg>
