<svg width="156" height="400" viewBox="0 0 156 400" fill="none" xmlns="http://www.w3.org/2000/svg">
<path d="M63.6634 364.799L63.2924 386.943C63.2924 386.943 85.616 394.755 85.9446 398.847L43.0782 399.631L42.2832 365.192L63.6634 364.799Z" fill="#F95C3A"/>
<path d="M50.0107 385.279C49.6012 385.411 49.2547 385.689 49.0377 386.061C48.8206 386.432 48.7481 386.871 48.8341 387.293C48.9534 387.707 49.2257 388.06 49.5958 388.28C49.9659 388.501 50.4061 388.572 50.8269 388.48C51.2533 388.335 51.6126 388.04 51.8386 387.65C52.0647 387.26 52.142 386.802 52.0565 386.36C51.8882 385.942 51.565 385.605 51.1542 385.419C50.7434 385.233 50.2768 385.213 49.8517 385.363" fill="#E1E1E7"/>
<path d="M43.0786 399.578L43.1422 396.101L84.2066 396.653C84.2066 396.653 86.1358 397.448 85.945 398.773L43.0786 399.578Z" fill="#343439"/>
<path d="M63.9816 386.657C63.9816 386.869 62.9216 386.985 61.8616 387.717C60.8016 388.448 60.314 389.296 60.1232 389.222C59.9324 389.148 60.2186 387.929 61.4694 387.102C62.7202 386.275 64.024 386.466 63.9816 386.657Z" fill="#343439"/>
<path d="M68.5184 388.437C68.5184 388.639 67.6598 389.01 66.9708 389.911C66.2818 390.812 66.091 391.745 65.9108 391.745C65.7306 391.745 65.5504 390.557 66.4302 389.455C67.31 388.353 68.5078 388.236 68.5184 388.437Z" fill="#343439"/>
<path d="M71.1683 393.769C70.9775 393.822 70.6595 392.784 71.1683 391.649C71.6771 390.515 72.6523 390.017 72.7477 390.186C72.8431 390.356 72.2495 390.981 71.8361 391.935C71.4227 392.89 71.3697 393.748 71.1683 393.769Z" fill="#343439"/>
<path d="M63.5151 381.643C63.4303 381.834 62.4551 381.558 61.2785 381.643C60.1019 381.728 59.1585 382.131 59.0737 381.95C58.9889 381.77 59.8369 381.018 61.1937 380.89C62.5505 380.763 63.6635 381.452 63.5151 381.643Z" fill="#343439"/>
<path d="M38.7643 353.023L23.4367 368.923C23.4367 368.923 34.4501 389.847 31.9167 393.07L0.0107422 364.45L22.8855 338.681L38.7643 353.023Z" fill="#F95C3A"/>
<path d="M14.8084 358.694C14.4176 358.511 13.973 358.479 13.5602 358.605C13.1473 358.73 12.7953 359.003 12.5718 359.372C12.3779 359.757 12.338 360.202 12.46 360.615C12.5821 361.029 12.8571 361.38 13.229 361.598C13.6444 361.786 14.1141 361.816 14.5496 361.681C14.9851 361.546 15.3562 361.257 15.5928 360.867C15.7556 360.444 15.7483 359.975 15.5723 359.558C15.3964 359.141 15.0656 358.809 14.6494 358.63" fill="#E1E1E7"/>
<path d="M0 364.45L2.4062 361.938L32.0862 390.324C32.0862 390.324 32.9236 392.243 31.8636 393.07L0 364.45Z" fill="#343439"/>
<path d="M24.094 369.23C23.9562 369.379 23.1082 368.753 21.8998 368.563C20.6914 368.372 19.6844 368.669 19.5996 368.478C19.5148 368.287 20.543 367.598 22.0164 367.842C23.4898 368.086 24.2636 369.114 24.094 369.23Z" fill="#343439"/>
<path d="M26.2032 373.619C26.1078 373.799 25.1432 373.46 24.0832 373.619C23.0232 373.778 22.1858 374.361 22.0374 374.212C21.889 374.064 22.578 373.099 23.9772 372.898C25.3764 372.697 26.3304 373.46 26.2032 373.619Z" fill="#343439"/>
<path d="M24.5074 379.321C24.3378 379.226 24.8254 378.261 25.9914 377.763C27.1574 377.265 28.1856 377.583 28.1114 377.763C28.0372 377.943 27.1998 377.996 26.2564 378.42C25.313 378.844 24.677 379.449 24.5074 379.321Z" fill="#343439"/>
<path d="M27.1891 365.213C26.9983 365.298 26.4789 364.439 25.5461 363.708C24.6133 362.976 23.6699 362.648 23.7123 362.436C23.7547 362.224 24.9101 362.266 25.9913 363.146C27.0725 364.026 27.3799 365.16 27.1891 365.213Z" fill="#343439"/>
<path d="M123.278 125.377L104.431 137.843L104.707 142.782L109.625 153.149C109.625 153.149 111.904 155.269 118.572 148.549C125.239 141.828 133.687 128.303 133.687 128.303L123.278 125.377Z" fill="#FFBE9D"/>
<path d="M155.004 99.4497C154.893 99.206 154.722 98.9945 154.507 98.835C154.292 98.6755 154.04 98.5734 153.774 98.5381L144.542 97.2979C144.14 97.2518 143.733 97.2892 143.346 97.4077C142.959 97.5263 142.601 97.7235 142.294 97.9869L115.858 120.681L117.056 121.847L126.977 124.243L155.184 99.8631L155.004 99.4497Z" fill="#4C45B3"/>
<path d="M147.679 101.336C147.78 101.442 147.916 101.505 148.061 101.515C148.206 101.525 148.35 101.48 148.464 101.389C148.595 101.327 148.698 101.216 148.749 101.08C148.801 100.943 148.797 100.792 148.739 100.658C148.63 100.56 148.488 100.505 148.342 100.505C148.195 100.505 148.053 100.56 147.944 100.658C147.658 100.796 147.531 101.124 147.679 101.336Z" fill="white"/>
<path d="M155.184 99.8631C154.578 99.8709 153.971 99.8284 153.372 99.7359L148.464 99.1529L145.072 98.7289C144.791 98.6764 144.502 98.6862 144.226 98.7576C143.949 98.829 143.691 98.9604 143.471 99.1423L141.966 100.457L135.203 106.276C130.401 110.389 126.034 114.099 122.854 116.759C121.307 118.031 120.024 119.081 119.059 119.886C118.608 120.272 118.129 120.627 117.628 120.946C118.02 120.49 118.453 120.072 118.922 119.696L122.589 116.431C125.706 113.696 130.009 109.954 134.843 105.831L141.627 100.043L143.164 98.7501C143.435 98.5296 143.751 98.3709 144.089 98.2849C144.428 98.1988 144.781 98.1876 145.125 98.2519L148.517 98.7395L153.414 99.4921C154.012 99.5761 154.603 99.7 155.184 99.8631Z" fill="#595866"/>
<path d="M145.591 104.612C145.591 104.612 144.743 104.198 143.588 106.488C142.432 108.778 138.902 115.297 138.902 115.297L134.959 111.523L128.938 110.654C128.938 110.654 127.338 111.47 128.09 112.36C128.843 113.251 132.33 114.947 132.33 114.947L133.942 119.6L127.264 113.675C127.264 113.675 124.486 113.675 124.804 115.413C125.122 117.152 128.97 123.628 128.97 123.628L125.154 122.24L121.317 118.137C121.317 118.137 119.875 117.798 120.066 119.197C120.257 120.597 123.85 126.278 123.85 126.278L128.885 130.751C128.885 130.751 132.15 131.398 132.712 130.539C133.141 129.873 133.496 129.162 133.772 128.419C133.772 128.419 135.595 128.419 136.146 127.709C136.527 127.06 136.766 126.338 136.846 125.589C136.846 125.589 139.369 126.798 140.121 125.409C140.871 123.633 141.322 121.746 141.457 119.823C141.51 118.604 145.877 108.417 145.856 108.067C145.835 107.718 147.404 104.379 145.591 104.612Z" fill="#FFBE9D"/>
<path d="M132.871 130.571C132.329 130.708 131.76 130.708 131.218 130.571C128.526 130.219 126.07 128.854 124.349 126.755C123.702 125.95 123.448 125.367 123.511 125.324C124.774 126.65 126.198 127.811 127.751 128.78C130.348 130.306 132.892 130.423 132.871 130.571Z" fill="#EB996E"/>
<path d="M132.076 128.091C131.949 128.197 131.069 127.37 130.221 126.151C129.373 124.932 128.885 123.819 129.034 123.734C129.182 123.65 129.892 124.604 130.73 125.791C131.567 126.978 132.214 127.974 132.076 128.091Z" fill="#EB996E"/>
<path d="M136.56 123.915C136.433 124.021 135.5 123.204 134.79 121.953C134.079 120.703 133.73 119.558 133.846 119.494C133.963 119.431 134.578 120.427 135.32 121.614C136.062 122.802 136.698 123.798 136.56 123.915Z" fill="#EB996E"/>
<path d="M140.927 120.766C140.492 119.903 140.137 119.002 139.867 118.074C139.439 117.215 139.084 116.321 138.807 115.403C138.934 115.297 139.867 116.293 140.493 117.841C140.956 118.741 141.109 119.77 140.927 120.766Z" fill="#EB996E"/>
<path d="M95.368 100.435C88.213 100.181 73.108 79.4157 73.2352 72.2501L73.797 29.1399C73.5744 17.5541 80.157 7.77028 91.7216 7.87628L92.7816 7.95048C97.9753 8.29651 102.848 10.5864 106.429 14.364C110.01 18.1415 112.037 23.1295 112.105 28.3343C112.243 38.3831 112.264 49.4813 111.84 54.8343C110.95 65.9219 99.7458 66.8971 99.7458 66.8971C99.7458 66.8971 99.6398 69.4729 99.5656 72.7377C99.3854 80.0623 102.247 100.647 94.9228 100.393L95.368 100.435Z" fill="#FFBE9D"/>
<path d="M99.7568 66.8971C94.6321 66.5445 89.7165 64.7269 85.5952 61.6607C85.5952 61.6607 88.5102 70.2361 99.6508 69.9817L99.7568 66.8971Z" fill="#EB996E"/>
<path d="M108.364 37.4397C108.342 37.853 108.158 38.2412 107.853 38.5208C107.548 38.8003 107.145 38.9488 106.731 38.9343C106.529 38.9343 106.328 38.8942 106.141 38.8163C105.954 38.7384 105.784 38.6242 105.641 38.4804C105.498 38.3365 105.385 38.1658 105.308 37.9781C105.232 37.7904 105.193 37.5894 105.194 37.3867C105.219 36.9743 105.403 36.5877 105.708 36.3087C106.013 36.0298 106.414 35.8804 106.827 35.8921C107.03 35.8892 107.232 35.9273 107.421 36.0042C107.609 36.0811 107.78 36.1952 107.924 36.3396C108.067 36.484 108.18 36.6559 108.256 36.8449C108.331 37.0339 108.368 37.2362 108.364 37.4397Z" fill="#343439"/>
<path d="M109.434 33.0831C109.222 33.2739 108.077 32.2987 106.381 32.1927C104.685 32.0867 103.36 32.8499 103.201 32.6273C103.042 32.4047 103.35 32.1715 103.912 31.8111C104.684 31.351 105.58 31.14 106.477 31.2069C107.365 31.2606 108.212 31.5988 108.894 32.1715C109.381 32.6061 109.54 32.9983 109.434 33.0831Z" fill="#343439"/>
<path d="M92.7607 37.1429C92.7388 37.5562 92.5554 37.9444 92.2501 38.224C91.9448 38.5035 91.542 38.652 91.1283 38.6375C90.9261 38.6389 90.7256 38.6001 90.5385 38.5234C90.3514 38.4466 90.1814 38.3335 90.0384 38.1905C89.8954 38.0475 89.7822 37.8775 89.7055 37.6903C89.6287 37.5032 89.5899 37.3027 89.5913 37.1005C89.5968 36.8917 89.6434 36.686 89.7284 36.4952C89.8135 36.3044 89.9353 36.1322 90.0869 35.9884C90.2385 35.8447 90.4169 35.7323 90.612 35.6575C90.807 35.5828 91.0149 35.5473 91.2237 35.5529C91.431 35.5497 91.6366 35.5891 91.8281 35.6686C92.0195 35.7481 92.1926 35.866 92.3366 36.015C92.4807 36.164 92.5926 36.341 92.6656 36.535C92.7385 36.729 92.7709 36.9359 92.7607 37.1429Z" fill="#343439"/>
<path d="M92.6971 32.3517C92.4851 32.5425 91.3403 31.5779 89.6337 31.4613C87.9271 31.3447 86.6233 32.1185 86.4537 31.9065C86.2841 31.6945 86.5915 31.4401 87.1639 31.0797C87.9382 30.6234 88.8326 30.4127 89.7291 30.4755C90.6159 30.5358 91.4613 30.8732 92.1459 31.4401C92.6441 31.8429 92.7925 32.2669 92.6971 32.3517Z" fill="#343439"/>
<path d="M97.9336 45.8667C98.8483 45.6375 99.7892 45.5306 100.732 45.5487C101.167 45.5487 101.591 45.4745 101.686 45.1777C101.748 44.7317 101.674 44.2774 101.474 43.8739L100.414 40.4713C98.9406 35.6271 97.9124 31.6627 98.1032 31.6097C98.294 31.5567 99.6508 35.4257 101.124 40.2593C101.474 41.4571 101.813 42.5913 102.131 43.6831C102.366 44.2293 102.403 44.8401 102.237 45.4109C102.166 45.56 102.061 45.6904 101.93 45.7916C101.799 45.8929 101.647 45.9621 101.485 45.9939C101.237 46.0414 100.984 46.0591 100.732 46.0469C99.7953 46.104 98.8552 46.0435 97.9336 45.8667Z" fill="#343439"/>
<path d="M92.9725 25.9705C92.7075 26.3839 91.0857 25.8221 89.0717 25.6419C87.0577 25.4617 85.3617 25.6419 85.1921 25.1967C85.1179 24.9741 85.4783 24.6137 86.2521 24.3063C87.2172 23.9367 88.2564 23.8023 89.2837 23.9141C90.3151 24.0062 91.3102 24.3403 92.1881 24.8893C92.8029 25.3345 93.0891 25.7691 92.9725 25.9705Z" fill="#343439"/>
<path d="M109.296 29.0657C108.925 29.4367 107.558 28.9597 105.883 28.8537C104.208 28.7477 102.788 28.9491 102.481 28.5251C102.353 28.3237 102.587 27.9527 103.233 27.6135C104.11 27.205 105.079 27.0367 106.042 27.1259C107.003 27.1881 107.929 27.5066 108.724 28.0481C109.296 28.4721 109.466 28.8855 109.296 29.0657Z" fill="#343439"/>
<path d="M74.1469 37.4185C73.9667 37.3231 66.727 34.6519 66.409 42.2521C66.091 49.8523 73.8289 48.6121 73.8289 48.3365C73.8289 48.0609 74.1469 37.4185 74.1469 37.4185Z" fill="#FFBE9D"/>
<path d="M71.6242 45.3791C71.6242 45.3791 71.4864 45.4639 71.2638 45.5593C70.9476 45.6872 70.5941 45.6872 70.278 45.5593C69.7963 45.2303 69.4108 44.7791 69.1612 44.2519C68.9116 43.7247 68.8068 43.1406 68.8576 42.5595C68.8657 41.9089 69.0178 41.2682 69.3028 40.6833C69.3849 40.4446 69.5246 40.2297 69.7094 40.0578C69.8943 39.8859 70.1187 39.7621 70.3628 39.6975C70.5157 39.6649 70.6752 39.6861 70.8142 39.7576C70.9533 39.8291 71.0634 39.9464 71.126 40.0897C71.2214 40.3017 71.126 40.4607 71.2108 40.4713C71.2956 40.4819 71.3804 40.3441 71.3274 40.0367C71.2979 39.8435 71.1955 39.669 71.0412 39.5491C70.9425 39.4649 70.8276 39.4018 70.7037 39.3635C70.5798 39.3252 70.4493 39.3126 70.3204 39.3265C70.0062 39.3778 69.7105 39.5091 69.4617 39.7077C69.213 39.9063 69.0195 40.1657 68.9 40.4607C68.5467 41.1116 68.3609 41.8401 68.3594 42.5807C68.3594 44.1177 69.0908 45.5699 70.1826 45.9303C70.3848 45.996 70.5991 46.0159 70.81 45.9884C71.0209 45.9609 71.223 45.8867 71.4016 45.7713C71.603 45.5593 71.656 45.3897 71.6242 45.3791Z" fill="#EB996E"/>
<path d="M93.2165 46.6829C93.1105 46.6829 93.0363 47.1069 93.2165 47.7429C93.404 48.6189 93.8641 49.413 94.5309 50.0113C95.1709 50.589 95.9108 51.0452 96.7145 51.3575C97.3187 51.5907 97.7109 51.6649 97.7745 51.5695C97.8381 51.4741 97.5095 51.2091 96.9901 50.8487C96.3214 50.4256 95.687 49.9507 95.0927 49.4283C93.6723 48.2199 93.4603 46.6087 93.2165 46.6829Z" fill="#343439"/>
<path d="M38.0327 178.822L33.1143 209.414L36.7077 234.695L36.8561 240.186L40.4919 267.163C40.4919 267.163 39.1457 292.603 38.4673 298.094C37.7889 303.584 40.1845 381.293 40.1845 381.293L64.9037 380.233C64.9037 380.233 74.2635 264.947 74.2635 263.675C74.2635 262.403 87.1213 177.455 87.1213 177.455L38.0327 178.822Z" fill="#3C3970"/>
<path d="M100.52 183.539C100.52 183.539 100.022 287.07 97.7108 293.059C95.4 299.048 30.4644 363.4 30.4644 363.4L9.90039 347.373L62.4128 276.703L65.6458 178.049L100.52 183.539Z" fill="#3C3970"/>
<path d="M83.2844 210.612C83.4222 210.612 80.3482 236.773 76.4156 268.997C72.483 301.221 69.1864 327.297 68.9956 327.297C68.8048 327.297 71.9318 301.146 75.8644 268.912C79.797 236.677 83.136 210.591 83.2844 210.612Z" fill="#595866"/>
<path d="M40.4919 267.163C40.5037 267.247 40.5037 267.333 40.4919 267.417C40.4919 267.608 40.4919 267.863 40.4919 268.159C40.4919 268.859 40.3753 269.813 40.2905 271.032C40.0785 273.523 39.8453 277.137 39.5803 281.632C39.0821 290.557 38.6581 302.896 38.7641 316.527C38.8701 330.159 39.2729 342.518 39.5061 351.507C39.6121 355.938 39.6969 359.542 39.7605 362.107C39.7605 363.326 39.7605 364.291 39.7605 364.99C39.7605 365.287 39.7605 365.541 39.7605 365.732C39.7652 365.817 39.7652 365.902 39.7605 365.987C39.7494 365.902 39.7494 365.817 39.7605 365.732C39.7605 365.541 39.7605 365.298 39.7605 364.99C39.7605 364.291 39.6863 363.337 39.6333 362.118C39.5379 359.574 39.4001 355.97 39.2199 351.518C38.9019 342.582 38.4143 330.233 38.3295 316.591C38.2447 302.949 38.7005 290.589 39.2941 281.611C39.6121 277.148 39.8983 273.544 40.1633 271.064C40.2905 269.845 40.3859 268.891 40.4601 268.191C40.4601 267.894 40.5343 267.65 40.5555 267.449C40.5246 267.356 40.5033 267.26 40.4919 267.163Z" fill="#595866"/>
<path d="M65.4867 208.418C65.5503 208.545 61.0453 210.919 55.4379 213.718C49.8305 216.516 45.2195 218.679 45.1559 218.551C45.0923 218.424 49.5973 216.06 55.2047 213.251C60.8121 210.442 65.4231 208.29 65.4867 208.418Z" fill="#595866"/>
<path d="M115.275 128.303L127.687 139.465C127.687 139.465 108.258 160.665 102.247 165.382C96.2372 170.099 104.166 133.359 104.166 133.359L115.275 128.303Z" fill="#F95C3A"/>
<path d="M73.1292 61.9575L67.967 69.1125L47.827 76.5325L38.7216 144.849L32.9658 205.842C32.9658 205.842 41.0112 194.373 47.1698 194.182C53.3284 193.991 84.4712 202.725 86.5806 204.315L90.6934 190.535L94.0218 206.531C94.0218 206.531 99.873 207.845 102.926 199.111L101.633 168.795C101.633 168.795 105.745 114.152 105.512 105.905C105.279 97.6583 99.714 74.7835 99.714 74.7835L97.594 81.5251L79.5634 66.1021L73.1292 61.9575Z" fill="#F95C3A"/>
<path d="M53.6787 74.4655C53.6787 74.4655 40.4816 74.4655 36.2098 98.8455C31.938 123.225 25.8112 149.503 28.97 159.361C32.1288 169.219 44.5838 197.425 44.5838 197.425L61.5438 191.299L54.569 146.916L62.6356 103.456C62.6356 103.456 63.6639 76.2463 53.6787 74.4655Z" fill="#F95C3A"/>
<path d="M68.8578 201.104C68.8578 201.104 60.7488 191.564 60.134 191.797L46.7038 196.652C46.4111 200.113 46.4431 203.595 46.7992 207.05C47.3186 212.022 48.1772 217.354 48.1772 217.354L65.8898 207.909C66.2815 209.875 66.8601 211.798 67.6176 213.654C68.6034 215.774 72.0166 213.538 72.0166 213.538L68.8578 201.104Z" fill="#FFBE9D"/>
<path d="M62.6036 103.488C62.6036 103.488 62.6036 103.753 62.4976 104.262C62.3916 104.771 62.275 105.555 62.0948 106.541C61.7344 108.544 61.215 111.481 60.5366 115.233C59.1586 122.78 57.1658 133.635 54.7278 146.959V146.885C56.7312 159.52 59.1268 174.667 61.7556 191.256V191.458L61.5648 191.532L44.6048 197.659L44.3822 197.744L44.2868 197.521L38.8808 184.992C35.6372 177.307 32.5208 169.802 29.7542 162.403C29.4044 161.481 29.097 160.548 28.7896 159.626C28.6306 159.16 28.5458 158.661 28.4186 158.195C28.2894 157.719 28.2007 157.233 28.1536 156.743C28.011 155.784 27.9261 154.818 27.8992 153.849C27.8992 152.895 27.825 151.93 27.8992 150.987C28.0102 147.277 28.3251 143.575 28.8426 139.899C29.7754 132.723 31.0474 125.971 32.2028 119.643C33.3582 113.314 34.4818 107.442 35.4782 102.068C35.9446 99.3755 36.4746 96.8209 37.0152 94.4147C37.3544 93.2275 37.683 92.0721 38.0116 90.9591C38.3402 89.8461 38.8066 88.8391 39.1882 87.7791C40.5371 84.286 42.6149 81.1205 45.2832 78.4935C46.9847 76.8489 49.0355 75.6097 51.2828 74.8683C51.8683 74.6892 52.4674 74.5581 53.0742 74.4761H53.5406H53.6996L53.0848 74.5503C52.4846 74.6505 51.8929 74.7958 51.3146 74.9849C49.1029 75.7615 47.0904 77.0176 45.421 78.6631C42.8 81.2871 40.7659 84.4376 39.4532 87.9063C39.0822 88.9663 38.6688 89.9627 38.2978 91.0863C37.9268 92.2099 37.6618 93.3441 37.3226 94.5207C36.8032 96.9269 36.2626 99.4603 35.8386 102.163C34.8528 107.548 33.7186 113.431 32.6586 119.759C31.5986 126.088 30.21 132.808 29.2878 139.963C28.7779 143.621 28.4701 147.305 28.3656 150.998C28.3656 151.941 28.3656 152.884 28.3656 153.828C28.3977 154.782 28.4827 155.734 28.62 156.679C28.6662 157.153 28.7549 157.621 28.885 158.078C29.0016 158.545 29.0864 159.011 29.2348 159.467C29.5528 160.389 29.8602 161.311 30.1994 162.233C32.9236 169.6 36.0824 177.074 39.3366 184.79C41.181 189.03 43.0042 193.27 44.732 197.319L44.414 197.182L61.374 191.065L61.215 191.33C58.6286 174.731 56.2648 159.594 54.2932 146.948V146.885C56.7948 133.582 58.8406 122.727 60.2716 115.191C60.9818 111.449 61.5436 108.523 61.9358 106.52C62.1266 105.534 62.275 104.781 62.381 104.251C62.487 103.721 62.6036 103.488 62.6036 103.488Z" fill="#343439"/>
<path d="M97.6685 81.5251C97.5782 81.8448 97.4464 82.1513 97.2763 82.4367L96.0467 84.9065L91.6053 93.4925L91.4357 93.8317L91.2131 93.5243C89.6337 91.3513 87.8105 89.0087 85.8177 86.6131C82.4791 82.5982 78.9116 78.7794 75.1329 75.1757C73.6913 73.7871 72.4935 72.6953 71.6667 71.9321C71.2171 71.5609 70.7955 71.1569 70.4053 70.7237C70.8971 71.0374 71.3616 71.392 71.7939 71.7837C72.6631 72.4939 73.9139 73.5539 75.3767 74.9107C79.2418 78.4516 82.8612 82.2517 86.2099 86.2845C88.2133 88.6907 90.0259 91.0545 91.5841 93.2487H91.1919C93.0469 89.8355 94.6263 86.8887 95.7923 84.7687L97.1491 82.3625C97.2976 82.0688 97.4714 81.7886 97.6685 81.5251Z" fill="#343439"/>
<path d="M102.121 85.1715C102.301 85.1079 103.181 88.2137 102.545 92.3477L102.428 93.0791L102.078 92.4113C101.887 92.0509 101.697 91.6799 101.516 91.2877C100.552 89.1677 100.043 87.0477 99.513 85.6803C98.983 84.3129 98.5801 83.4119 98.6543 83.3801C99.1657 84.0155 99.567 84.7321 99.8415 85.5001C100.467 86.9099 101.039 88.9451 101.962 91.0333C102.142 91.4149 102.322 91.7753 102.502 92.0933L102.036 92.1569C102.303 90.4999 102.385 88.8182 102.28 87.1431C102.248 85.9029 102.068 85.1927 102.121 85.1715Z" fill="#343439"/>
<path d="M98.5374 85.0549C98.554 85.1424 98.554 85.2323 98.5374 85.3199C98.5374 85.5319 98.5374 85.7969 98.5374 86.1255C98.5374 86.8357 98.5374 87.8745 98.5374 89.2101C98.5374 91.8919 98.389 95.7609 98.124 100.541C97.6152 110.081 96.4492 123.289 95.2514 137.843C94.0536 152.397 92.8876 165.551 92.0714 175.123C91.6474 179.861 91.2976 183.709 91.0114 186.412C90.8842 187.716 90.7782 188.744 90.704 189.475C90.704 189.801 90.6722 190.066 90.6086 190.27C90.6194 190.362 90.6194 190.455 90.6086 190.546C90.5947 190.455 90.5947 190.362 90.6086 190.27C90.6086 190.058 90.6086 189.793 90.6086 189.475C90.6086 188.733 90.7358 187.705 90.8206 186.391C91.0326 183.688 91.3188 179.83 91.6898 175.091C92.4636 165.551 93.5342 152.344 94.7214 137.801C95.9086 123.257 97.1488 110.071 97.7424 100.52C98.0498 95.7503 98.2194 91.8813 98.3148 89.2101C98.3678 87.8957 98.3996 86.8675 98.4314 86.1255C98.4314 85.7969 98.4314 85.5319 98.4314 85.3199C98.4513 85.2261 98.4872 85.1365 98.5374 85.0549Z" fill="#343439"/>
<path d="M105.661 108.799C105.798 108.799 105.046 122.324 103.965 138.966C102.883 155.608 101.845 169.113 101.76 169.102C101.675 169.092 102.375 155.587 103.456 138.935C104.537 122.282 105.523 108.788 105.661 108.799Z" fill="#343439"/>
<path d="M65.9322 92.4643C65.8368 92.4643 65.8368 91.2453 65.3492 89.3691C64.736 86.9184 63.5197 84.66 61.8109 82.7994C60.1021 80.9388 57.9551 79.5351 55.5654 78.7161C53.7422 78.0695 52.5232 77.9741 52.5338 77.8787C52.8177 77.8279 53.1084 77.8279 53.3924 77.8787C54.1682 77.9696 54.9344 78.1292 55.682 78.3557C58.1772 79.1123 60.4238 80.5243 62.1875 82.4446C63.9512 84.365 65.1675 86.7233 65.7096 89.2737C65.8719 90.0375 65.9641 90.8145 65.9852 91.5951C66.018 91.8857 66.0001 92.1798 65.9322 92.4643Z" fill="#343439"/>
<g opacity="0.3">
<path opacity="0.3" d="M102.46 164.989C106.148 154.86 106.797 143.873 104.325 133.38C103.657 143.98 103.096 154.58 102.428 165.18" fill="#343439"/>
</g>
<g opacity="0.3">
<path opacity="0.3" d="M61.9251 107.273C57.5685 129.904 54.0281 151.369 54.5051 148.401L61.5435 191.299L65.6775 197.425C62.0629 168.636 59.0949 135.946 61.9251 107.273Z" fill="#343439"/>
</g>
<path d="M120.035 15.3917C119.985 14.6583 119.752 13.949 119.358 13.3287C118.963 12.7084 118.42 12.1968 117.777 11.8407C117.814 11.4175 117.814 10.9919 117.777 10.5687C117.591 9.28997 116.974 8.11322 116.027 7.23393C115.08 6.35464 113.861 5.82574 112.572 5.73509C112.432 4.74496 112.023 3.81198 111.392 3.03685C110.76 2.26172 109.928 1.67389 108.987 1.33678C108.045 0.999664 107.029 0.926084 106.049 1.12398C105.069 1.32187 104.161 1.78372 103.424 2.45969C102.525 1.57544 101.39 0.969187 100.154 0.713514C98.9193 0.457841 97.6367 0.563584 96.4601 1.01808C96.1592 1.11597 95.8937 1.3003 95.6969 1.54808C95.6392 1.63438 95.5991 1.7313 95.5791 1.8332C95.5591 1.9351 95.5595 2.03995 95.5803 2.14169C95.26 1.55849 94.8036 1.06122 94.25 0.69214C93.6964 0.323056 93.0618 0.0930613 92.4003 0.0216899C91.9495 -0.0265164 91.4936 0.00578197 91.0541 0.117086C89.8569 0.153072 88.719 0.646178 87.8741 1.49509C86.3688 0.896287 84.6963 0.869779 83.1728 1.42058C81.6493 1.97139 80.3804 3.06132 79.6061 4.48429C78.3565 4.49298 77.1372 4.86959 76.1003 5.5671C75.0635 6.26461 74.2551 7.25211 73.7761 8.40629C72.971 8.42835 72.1849 8.65619 71.4928 9.06812C70.8007 9.48004 70.2256 10.0623 69.8223 10.7595C69.4363 11.4651 69.2392 12.2585 69.2504 13.0628C69.2615 13.867 69.4805 14.6547 69.8859 15.3493C69.8859 15.3493 64.4693 16.1867 65.5187 21.0415C66.0593 23.5219 69.3453 23.3311 69.3453 23.3311L72.3557 38.9873C72.2921 39.0509 73.1931 40.9271 74.1365 40.5985C75.0325 40.1498 75.7716 39.4402 76.2565 38.5633C77.0037 37.6981 77.6117 36.7218 78.0585 35.6695C78.2686 35.1369 78.3005 34.5507 78.1495 33.9985C77.9986 33.4462 77.6729 32.9577 77.2211 32.6061C77.8812 32.3857 78.4717 31.9953 78.9332 31.4743C79.3946 30.9533 79.7108 30.32 79.8499 29.6381C80.1168 28.271 80.1348 26.867 79.9029 25.4935C79.6909 23.4583 79.4718 21.4231 79.2457 19.3879C80.6326 19.4337 82.0057 19.0994 83.2163 18.4212C84.427 17.743 85.4292 16.7467 86.1145 15.5401C86.5926 15.9269 87.1472 16.2082 87.7418 16.3653C88.3363 16.5224 88.9574 16.5519 89.5642 16.4518C90.171 16.3517 90.7497 16.1242 91.2623 15.7844C91.7748 15.4445 92.2097 15 92.5381 14.4801C92.938 15.8631 93.8471 17.0432 95.0823 17.7827C96.3175 18.5223 97.787 18.7663 99.1949 18.4657C98.7815 20.0239 101.506 21.6457 103.022 22.2075C104.218 22.4495 105.46 22.297 106.562 21.7729C107.474 22.3919 108.49 22.8407 109.562 23.0979H109.731C111.851 23.4583 114.099 21.6563 115.275 19.8331C115.821 19.9445 116.383 19.9445 116.929 19.8331C117.868 19.5458 118.684 18.9524 119.247 18.1475C119.81 17.3426 120.087 16.3725 120.035 15.3917Z" fill="#161516"/>
<path d="M58.1196 129.257C58.1196 129.331 56.6992 128.674 54.4096 127.741C51.4373 126.5 48.3932 125.438 45.2936 124.561C42.1946 123.711 39.0479 123.046 35.8702 122.568C33.4216 122.197 31.8952 122.049 31.9058 121.953C32.2578 121.91 32.6138 121.91 32.9658 121.953C33.6654 121.953 34.6618 122.049 35.902 122.187C42.3473 122.93 48.6377 124.671 54.5474 127.349C55.671 127.868 56.572 128.314 57.1868 128.653C57.8016 128.992 58.1408 129.214 58.1196 129.257Z" fill="white"/>
<path d="M48.4422 195.57C48.3852 195.485 48.3389 195.392 48.3044 195.295L47.9652 194.468L46.6932 191.288C45.6332 188.49 44.0538 184.43 42.3472 179.352C40.2877 173.413 38.6547 167.335 37.4606 161.163C36.7647 157.49 36.3115 153.776 36.1038 150.043C35.9089 146.052 36.0187 142.051 36.4324 138.076C37.3446 130.426 38.761 122.845 40.6724 115.381C42.3154 108.481 43.9266 102.301 45.3576 97.1283C46.7886 91.9555 48.0182 87.8003 48.898 84.9277C49.3432 83.5285 49.6824 82.4261 49.958 81.6311L50.2442 80.7831C50.2689 80.6825 50.3082 80.5861 50.3608 80.4969C50.3537 80.6018 50.3323 80.7052 50.2972 80.8043L50.064 81.6629C49.8414 82.4685 49.5234 83.5815 49.1206 84.9913C48.3044 87.8745 47.1278 92.0509 45.7498 97.2343C44.3718 102.418 42.803 108.597 41.1812 115.498C39.307 122.945 37.912 130.504 37.0048 138.129C36.5932 142.076 36.4798 146.048 36.6656 150.012C36.8671 153.704 37.3061 157.379 37.98 161.014C39.138 167.173 40.7212 173.243 42.7182 179.183C44.3824 184.271 45.8982 188.341 46.8946 191.161C47.3928 192.549 47.785 193.631 48.0712 194.415L48.3574 195.263C48.3985 195.362 48.427 195.465 48.4422 195.57Z" fill="white"/>
<path d="M56.4027 163.686C56.4027 163.686 56.1165 163.877 55.5653 164.12C55.0141 164.364 54.1873 164.682 53.1697 165.043C50.5004 165.973 47.7696 166.717 44.9971 167.269C42.2259 167.812 39.4211 168.166 36.6019 168.329C35.5419 168.382 34.6409 168.392 34.0367 168.381C33.7203 168.409 33.4015 168.384 33.0933 168.307C34.2436 168.113 35.4046 167.989 36.5701 167.936C38.6901 167.724 41.6687 167.364 44.8911 166.728C48.1135 166.092 50.9861 165.297 53.0531 164.671C54.1515 164.284 55.2696 163.955 56.4027 163.686Z" fill="white"/>
<path d="M65.4233 96.5029C65.3385 96.5665 64.4799 95.2309 62.7203 93.4077C61.6929 92.3493 60.5796 91.3779 59.3919 90.5033C57.9263 89.4416 56.3648 88.519 54.7279 87.7473C53.0816 87.0045 51.3716 86.412 49.6187 85.9771C48.1807 85.634 46.7162 85.4141 45.2409 85.3199C42.7181 85.1609 41.1493 85.3729 41.1387 85.2563C41.4829 85.148 41.8387 85.0804 42.1987 85.0549C42.627 84.9918 43.059 84.9564 43.4919 84.9489C44.0709 84.9161 44.6513 84.9161 45.2303 84.9489C46.7353 84.9929 48.2328 85.1774 49.7035 85.5001C51.5005 85.9128 53.2513 86.5059 54.9293 87.2703C56.5971 88.0612 58.184 89.0126 59.6675 90.1111C60.8591 91.0275 61.966 92.0493 62.9747 93.1639C63.3705 93.5878 63.7421 94.0337 64.0877 94.4995C64.3607 94.8365 64.6121 95.1906 64.8403 95.5595C65.0722 95.8491 65.268 96.1659 65.4233 96.5029Z" fill="white"/>
<path d="M74.4968 199.323C74.4874 199.206 74.4874 199.09 74.4968 198.973V197.977C74.4968 197.054 74.4968 195.761 74.4968 194.118C74.4968 190.737 74.6134 185.903 74.6876 179.946C74.9102 167.947 75.207 151.432 75.5462 133.2C75.7052 124.063 75.8324 115.371 75.5462 107.463C75.4084 103.52 75.154 99.7677 74.8148 96.2697C74.5547 93.0268 74.0264 89.8111 73.2354 86.6555C72.5664 84.0589 71.4933 81.5835 70.0554 79.3203C68.9767 77.6117 67.6269 76.0901 66.0592 74.8153C65.0624 74.0137 63.9735 73.3341 62.8156 72.7907C62.01 72.4303 61.5648 72.2925 61.5754 72.2607C62.0146 72.3684 62.4437 72.5138 62.858 72.6953C64.0507 73.1916 65.1704 73.8478 66.1864 74.6457C67.8026 75.9099 69.1994 77.432 70.3204 79.1507C71.7943 81.4358 72.8962 83.9402 73.5852 86.5707C74.4121 89.7403 74.9688 92.9742 75.2494 96.2379C75.6098 99.7465 75.8748 103.499 76.0338 107.453C76.3518 115.371 76.2352 124.084 76.0338 133.211C75.631 151.453 75.2812 167.968 74.9738 179.967C74.8254 185.924 74.6982 190.747 74.6028 194.129C74.6028 195.782 74.5074 197.065 74.4756 197.987C74.4756 198.401 74.4756 198.729 74.4756 198.984C74.4934 199.096 74.5005 199.209 74.4968 199.323Z" fill="white"/>
<path d="M91.6156 176.734C91.1635 176.743 90.7119 176.7 90.2694 176.607C89.4214 176.48 88.1494 176.289 86.6548 176.024C83.602 175.505 79.4044 174.72 74.7828 173.766C70.1612 172.812 65.9848 171.869 62.985 171.137C61.4798 170.766 60.2714 170.459 59.434 170.236C58.9921 170.148 58.5619 170.009 58.1514 169.823C58.6024 169.843 59.05 169.911 59.487 170.024L63.0698 170.756L74.8888 173.226L86.729 175.642L90.3118 176.395C90.7567 176.464 91.1935 176.578 91.6156 176.734Z" fill="white"/>
<path d="M94.4886 138.723C94.4886 138.871 86.0086 138.362 75.4828 137.578C64.957 136.793 56.4982 136.03 56.5088 135.882C56.5194 135.733 64.9888 136.242 75.5252 137.027C86.0616 137.811 94.4992 138.574 94.4886 138.723Z" fill="white"/>
<path d="M97.2657 105.269C96.8164 105.369 96.3585 105.426 95.8983 105.439C95.0185 105.513 93.7783 105.598 92.1565 105.682C88.9765 105.841 84.6199 105.969 79.7969 105.937C74.9739 105.905 70.5855 105.725 67.4267 105.534C65.8473 105.428 64.5753 105.333 63.6849 105.248C63.2267 105.238 62.7714 105.174 62.3281 105.057C62.7861 105.007 63.2482 105.007 63.7061 105.057L67.4479 105.163C70.6279 105.258 74.9739 105.375 79.7969 105.407C84.6199 105.439 88.9871 105.407 92.1459 105.311L95.8877 105.248C96.3464 105.203 96.8087 105.21 97.2657 105.269Z" fill="white"/>
<path d="M74.6981 74.0203C73.8727 74.2919 73.0249 74.4906 72.1647 74.6139C70.1288 75.042 68.1157 75.5727 66.1333 76.2039C63.8119 76.9565 61.7661 77.7939 60.3033 78.4299C59.5331 78.844 58.7322 79.1983 57.9077 79.4899C58.5863 78.941 59.3349 78.4847 60.1337 78.1331C63.9067 76.2109 67.9601 74.8979 72.1435 74.2429C72.9822 74.0612 73.8406 73.9864 74.6981 74.0203Z" fill="white"/>
<path d="M95.9192 85.9983C95.5631 85.7614 95.2359 85.484 94.944 85.1715L92.4 82.7653C90.28 80.7407 87.2802 77.9635 83.92 74.9955C80.5598 72.0275 77.4116 69.4093 75.122 67.5755L72.4296 65.3601C72.0802 65.1068 71.7602 64.8153 71.4756 64.4909C71.8524 64.6863 72.2077 64.9208 72.5356 65.1905C73.214 65.6569 74.1786 66.3671 75.3446 67.3105C77.6978 69.1019 80.8778 71.6671 84.2592 74.6563C87.6406 77.6455 90.6192 80.4651 92.665 82.5639C93.725 83.6239 94.5306 84.4825 95.0924 85.0867C95.3988 85.3611 95.6759 85.6666 95.9192 85.9983Z" fill="white"/>
<path d="M88.9765 74.5609C88.0572 75.9828 86.9914 77.3045 85.7965 78.5041C84.7121 79.8181 83.4935 81.0153 82.1606 82.0763C83.0697 80.647 84.1363 79.3243 85.3406 78.1331C86.4184 76.8131 87.6376 75.6152 88.9765 74.5609Z" fill="white"/>
<path d="M105.64 105.884C104.338 105.947 103.034 105.908 101.739 105.767C100.438 105.798 99.1366 105.72 97.8486 105.534C99.122 105.17 100.455 105.061 101.771 105.216C103.092 105.177 104.408 105.404 105.64 105.884Z" fill="white"/>
<path d="M103.138 141.245C101.831 141.485 100.497 141.546 99.1735 141.426C97.8447 141.489 96.5135 141.364 95.2197 141.055C96.5269 140.815 97.8606 140.754 99.1841 140.874C100.513 140.813 101.844 140.938 103.138 141.245Z" fill="white"/>
<path d="M102.428 93.0791C102.442 93.174 102.442 93.2704 102.428 93.3653V94.2133C102.428 94.9977 102.428 96.0895 102.428 97.4781C102.428 98.8667 102.428 100.658 102.428 102.64C102.428 104.622 102.364 106.944 102.279 109.477C101.993 119.611 101.124 133.592 100.032 149.015C98.9404 164.438 98.0076 178.409 97.6154 188.532C97.4988 191.066 97.4246 193.355 97.3822 195.369C97.3398 197.383 97.2656 199.111 97.2656 200.521C97.2656 201.931 97.2656 203.001 97.202 203.785C97.202 204.135 97.202 204.411 97.202 204.634C97.215 204.732 97.215 204.832 97.202 204.93C97.189 204.832 97.189 204.732 97.202 204.634C97.202 204.411 97.202 204.135 97.202 203.785C97.202 203.001 97.202 201.909 97.149 200.521C97.096 199.132 97.149 197.341 97.149 195.359C97.149 193.376 97.2126 191.055 97.2974 188.521C97.5942 178.388 98.474 164.406 99.5552 148.983C100.636 133.56 101.569 119.59 101.961 109.467C102.078 106.933 102.142 104.644 102.195 102.64C102.248 100.637 102.301 98.8879 102.311 97.4781C102.322 96.0683 102.311 94.9977 102.364 94.2133V93.3653C102.417 93.1745 102.428 93.0791 102.428 93.0791Z" fill="white"/>
<path d="M101.908 176.586C100.29 177.167 98.6118 177.569 96.9052 177.784C95.2346 178.187 93.525 178.407 91.8066 178.441C93.4289 177.871 95.1055 177.47 96.8098 177.243C98.4817 176.846 100.191 176.626 101.908 176.586Z" fill="white"/>
<path d="M121.868 134.726C120.988 135.401 120.06 136.01 119.091 136.55C117.353 137.61 114.968 139.147 112.403 140.927C109.837 142.708 107.58 144.404 105.958 145.655C105.113 146.371 104.22 147.03 103.287 147.627C104.014 146.784 104.827 146.02 105.714 145.348C107.283 144.023 109.509 142.263 112.074 140.472C114.639 138.68 117.077 137.207 118.869 136.232C119.819 135.636 120.823 135.132 121.868 134.726Z" fill="white"/>
<path d="M118.487 148.952C117.922 148.19 117.429 147.377 117.014 146.524C116.144 144.998 114.894 142.91 113.526 140.652C112.159 138.394 110.76 136.412 109.774 134.938C109.194 134.185 108.68 133.384 108.237 132.543C108.931 133.179 109.553 133.89 110.092 134.663C111.152 136.051 112.572 138.034 113.993 140.313C115.413 142.592 116.579 144.722 117.353 146.302C117.828 147.14 118.209 148.029 118.487 148.952Z" fill="white"/>
</svg>
